<?xml version="1.0" encoding="utf-8"?><svg viewBox="0 0 79 79" xmlns="http://www.w3.org/2000/svg" xmlns:xlink="http://www.w3.org/1999/xlink"><style>:root>svg{display:none}:root>svg:target{display:block}</style><svg fill="none" viewBox="0 0 78 78" id="architect" xmlns="http://www.w3.org/2000/svg"><g clip-path="url(#aclip0_1_270)" fill="#4C858B"><path d="M34.225 44.593h-29.4c-1.345 0-1.345-2.032 0-2.032h26.551c1.511 0 1.513-2.285 0-2.285h-24.3V6.602H69.11v33.674h-7.354c-1.51 0-1.513 2.285 0 2.285h10.02c1.343 0 1.343 2.032 0 2.032H59.11c-1.51 0-1.512 2.285 0 2.285h12.665c1.82 0 3.3-1.48 3.3-3.3 0-1.82-1.48-3.302-3.3-3.302h-.381V6.602h.38c1.82 0 3.301-1.481 3.301-3.301S73.595 0 71.775 0H4.825a3.304 3.304 0 00-3.302 3.301 3.305 3.305 0 003.269 3.301v33.675a3.305 3.305 0 00-3.269 3.3c0 1.82 1.481 3.301 3.301 3.301h29.401c1.51 0 1.513-2.285 0-2.285zM4.825 2.285h66.95c1.343 0 1.343 2.032 0 2.032H4.825c-1.346 0-1.344-2.032 0-2.032z"/><path d="M21.188 10.735c0-1.003-.817-1.82-1.82-1.82h-7.173c-1.003 0-1.819.817-1.819 1.82v4.43c0 1.004.816 1.82 1.82 1.82h7.172c1.003 0 1.82-.816 1.82-1.82v-4.43zM18.903 14.7H12.66v-3.5h6.242v3.5zM21.188 21.323c0-1.003-.817-1.819-1.82-1.819h-7.173c-1.003 0-1.819.816-1.819 1.82v4.43c0 1.004.816 1.82 1.82 1.82h7.172c1.003 0 1.82-.816 1.82-1.82v-4.43zm-2.285 3.965H12.66v-3.5h6.242v3.5zM19.368 30.093h-7.173c-1.003 0-1.819.815-1.819 1.819v4.43c0 1.004.816 1.82 1.82 1.82h7.172c1.003 0 1.82-.816 1.82-1.82v-4.43c0-1.004-.817-1.82-1.82-1.82zm-.465 5.784H12.66v-3.5h6.242v3.5zM69.522 51.916a19.008 19.008 0 00-3.878-1.176l-11.577-2.25v-2.861c3.251-2.218 5.01-5.358 5.394-8.886a3.286 3.286 0 003.02-3.27v-2.348c2.75-1.197 2.379-5.211-.532-5.888v-.907c0-8.148-6.605-14.753-14.753-14.753H45.96c-8.148 0-14.753 6.605-14.753 14.753v.906c-2.91.677-3.283 4.692-.531 5.889v2.347a3.285 3.285 0 003.02 3.27c.38 3.512 2.12 6.653 5.393 8.887v2.86L27.513 50.74a18.97 18.97 0 00-3.879 1.176c-4.697 2.021-6.989 5.249-6.989 9.807v2.347c0 1.51 2.285 1.513 2.285 0v-2.346c0-3.424 1.556-5.791 4.968-7.426.137.608 2.23 6.29 2.23 14.23v7.188h-4.827a2.371 2.371 0 01-2.371-2.371v-4.729c0-1.51-2.285-1.513-2.285 0v4.729A4.655 4.655 0 0021.301 78h50.555a4.655 4.655 0 004.655-4.655V61.724c0-4.56-2.292-7.787-6.989-9.808zm-2.394 1.532c-.159.698-2.385 6.693-2.385 15.08v7.188H47.72v-5.757c0-1.711.52-3.356 1.505-4.756a2138.041 2138.041 0 009.354-13.509c8.201 1.652 7.212 1.31 8.548 1.754zM45.8 63.888a896.898 896.898 0 01-3.203-4.595 3.426 3.426 0 001.02-.407l2.962-1.777 2.962 1.777c.323.193.668.329 1.02.407a862.95 862.95 0 01-3.202 4.595c-.293.415-.553.847-.78 1.293a10.602 10.602 0 00-.779-1.293zm-1.553-8.044c-1.81.968-1.68 1.258-2.503 1.16a1.8 1.8 0 01-1.262-.768c-1.366-1.978-2.63-3.814-3.458-5.017l2.288-.445c.739 2.245 3.175 4.03 4.935 5.07zm11.888-4.625c-.83 1.206-2.098 3.047-3.467 5.03-.559.808-1.56.911-1.952.676l-1.805-1.081c1.761-1.04 4.196-2.825 4.935-5.07l2.289.445zm-16.21-37.796v1.433c0 1.51 2.284 1.513 2.284 0v-2.417a12.394 12.394 0 013.228-.566v5.65c0 1.51 2.285 1.512 2.285 0v-5.65a12.41 12.41 0 013.227.566v2.417c0 1.51 2.285 1.513 2.285 0v-1.432c7.142 3.968 6.383 11.552 6.432 11.732H33.492c.04-.147-.674-7.785 6.432-11.733zM31.913 27.44h29.331c1.096 0 1.094 1.655 0 1.655H31.913c-1.096 0-1.094-1.655 0-1.655zm3.995 8.146a1.142 1.142 0 00-1.143-1.118c-.19-.048-1.804.296-1.804-.996V31.38h27.235v2.092c0 1.29-1.658.96-1.805.996-.622 0-1.13.496-1.142 1.118-.062 2.856-1.275 5.509-3.33 7.278-4.364 3.757-10.317 3.758-14.68 0-2.056-1.77-3.27-4.423-3.331-7.278zM51.782 46.89v2.54c0 2.044-3.467 4.207-5.204 5.081-1.735-.873-5.195-3.031-5.204-5.072v-2.548a13.12 13.12 0 0010.408 0zm-25.754 6.558c1.335-.443.343-.102 8.548-1.754l.653.95c.666.967 1.588 2.306 2.61 3.786 1.863 2.702 4.434 6.417 6.091 8.773a8.225 8.225 0 011.506 4.756v5.756H28.414v-7.188c0-8.602-2.173-14.14-2.386-15.079zm48.198 19.897a2.373 2.373 0 01-2.37 2.37h-4.828v-7.187c0-7.722 2.146-13.857 2.231-14.23 3.412 1.635 4.968 4.002 4.968 7.426v11.62h-.001z"/><path d="M52.806 66.084a1.956 1.956 0 00-1.953 1.954v2.29c0 1.077.876 1.953 1.953 1.953h6.72a1.956 1.956 0 001.953-1.954v-2.289a1.956 1.956 0 00-1.954-1.954h-6.719zm6.388 3.912h-6.056V68.37h6.056v1.626z"/></g><defs><clipPath id="aclip0_1_270"><path fill="#fff" d="M0 0h78v78H0z"/></clipPath></defs></svg><svg fill="none" viewBox="0 0 24 24" id="cart" xmlns="http://www.w3.org/2000/svg"><g clip-path="url(#bclip0_401_12)" fill="#000"><path d="M23.644 8.675a1.658 1.658 0 00-1.305-.626h-4.622L15.211 2.31a.703.703 0 10-1.289.563l2.26 5.176H7.818l2.26-5.176A.703.703 0 108.79 2.31L6.283 8.05H1.66c-.512 0-.988.227-1.305.625-.31.39-.426.892-.315 1.377L2.51 20.833a1.647 1.647 0 001.62 1.279h15.74c.782 0 1.448-.526 1.62-1.279l2.469-10.781a1.62 1.62 0 00-.315-1.377zm-3.773 12.03H4.129a.251.251 0 01-.249-.186L1.412 9.74a.215.215 0 01.044-.188.255.255 0 01.205-.096h4.008l-.184.422a.703.703 0 001.288.563l.43-.984h9.594l.43.984a.703.703 0 101.288-.563l-.184-.422h4.008c.112 0 .177.06.205.096.03.039.063.103.044.187L20.12 20.519a.252.252 0 01-.25.186z"/><path d="M7.781 12.502a.703.703 0 00-.703.704v5.156a.703.703 0 001.406 0v-5.156a.703.703 0 00-.703-.704zM12 12.502a.703.703 0 00-.703.704v5.156a.703.703 0 001.406 0v-5.156a.703.703 0 00-.703-.704zM16.219 12.502a.703.703 0 00-.703.704v5.156a.703.703 0 001.406 0v-5.156a.703.703 0 00-.703-.704z"/></g><defs><clipPath id="bclip0_401_12"><path fill="#fff" d="M0 0h24v24H0z"/></clipPath></defs></svg><svg fill="none" viewBox="0 0 79 79" id="guarantee" xmlns="http://www.w3.org/2000/svg"><g clip-path="url(#cclip0_1_280)" fill="#4C858B"><path d="M77.726 0H6.37c-.703 0-1.274.571-1.274 1.274v3.823H1.274C.571 5.097 0 5.667 0 6.37v50.968c0 .704.571 1.274 1.274 1.274h24.874a14.11 14.11 0 004.433 3.55v15.563a1.275 1.275 0 002.175.9l4.196-4.195 4.195 4.195a1.275 1.275 0 002.175-.9V62.162a14.112 14.112 0 004.433-3.55H72.63c.703 0 1.274-.57 1.274-1.274v-3.823h3.823c.703 0 1.274-.57 1.274-1.274V1.274C79 .571 78.43 0 77.726 0zM40.774 74.65l-2.922-2.922a1.273 1.273 0 00-1.801 0l-2.922 2.922V63.167c1.217.345 2.496.542 3.823.542 1.326 0 2.605-.197 3.822-.542V74.65zM36.952 61.16c-6.323 0-11.468-5.144-11.468-11.468 0-6.323 5.145-11.467 11.468-11.467 6.322 0 11.467 5.144 11.467 11.467 0 6.324-5.145 11.468-11.467 11.468zM23 50.968h-7.8a8.941 8.941 0 00-7.556-7.555V20.297a8.943 8.943 0 007.555-7.555h43.505a8.942 8.942 0 007.554 7.555v23.117a8.94 8.94 0 00-7.554 7.555h-7.8c.036-.422.063-.845.063-1.276 0-7.727-6.289-14.016-14.017-14.016-7.727 0-14.016 6.288-14.016 14.016 0 .43.027.854.066 1.275zm48.354 5.096H49.42c.414-.807.752-1.658 1.004-2.548h9.462c.704 0 1.274-.57 1.274-1.274a6.378 6.378 0 016.371-6.371c.704 0 1.274-.57 1.274-1.274V19.113c0-.703-.57-1.274-1.274-1.274a6.378 6.378 0 01-6.37-6.371c0-.703-.571-1.274-1.275-1.274h-45.87c-.704 0-1.275.57-1.275 1.274a6.378 6.378 0 01-6.371 6.37c-.703 0-1.274.572-1.274 1.275v25.484c0 .704.57 1.274 1.274 1.274a6.378 6.378 0 016.37 6.37c0 .706.572 1.275 1.275 1.275h9.463c.252.89.59 1.74 1.003 2.548H2.548V7.645h68.807v48.42zm5.096-5.096h-2.548V6.37c0-.703-.57-1.274-1.274-1.274H7.645V2.548h68.806v48.42z"/><path d="M36.952 40.774c-4.919 0-8.92 4.003-8.92 8.92h2.549a6.379 6.379 0 016.37-6.371v-2.549zM43.323 49.694a6.378 6.378 0 01-6.371 6.37v2.549c4.918 0 8.92-4.002 8.92-8.92h-2.55zM56.065 21.661v-5.097c0-.703-.571-1.274-1.275-1.274H19.113c-.703 0-1.274.572-1.274 1.274v5.097c0 .703.57 1.274 1.274 1.274H54.79c.704 0 1.275-.57 1.275-1.274zm-2.549-1.274H20.387V17.84h33.13v2.548zM10.194 25.484h10.193v2.548H10.194v-2.548zM10.194 30.58h10.193v2.549H10.194v-2.548zM22.936 30.58H63.71v2.549H22.936v-2.548zM22.936 25.484H63.71v2.548H22.936v-2.548z"/></g><defs><clipPath id="cclip0_1_280"><path fill="#fff" d="M0 0h79v79H0z"/></clipPath></defs></svg><svg fill="none" viewBox="0 0 23 23" id="heart" xmlns="http://www.w3.org/2000/svg"><path d="M11.5 21.72c-.328 0-.643-.118-.89-.334a267.11 267.11 0 00-2.614-2.25l-.004-.003c-2.318-1.974-4.319-3.68-5.71-5.36C.724 11.897 0 10.116 0 8.17c0-1.89.648-3.633 1.825-4.91a6.185 6.185 0 014.6-2.002c1.328 0 2.544.42 3.614 1.247.54.418 1.03.93 1.461 1.526a7.394 7.394 0 011.461-1.526c1.07-.827 2.286-1.247 3.614-1.247 1.776 0 3.41.711 4.6 2.002C22.352 4.537 23 6.28 23 8.17c0 1.945-.725 3.726-2.281 5.604-1.392 1.68-3.393 3.385-5.71 5.359-.792.675-1.689 1.44-2.62 2.254a1.35 1.35 0 01-.889.333zM6.425 2.605a4.852 4.852 0 00-3.61 1.569C1.868 5.2 1.347 6.619 1.347 8.17c0 1.636.608 3.1 1.971 4.744 1.318 1.59 3.278 3.26 5.547 5.194l.004.004c.794.676 1.693 1.442 2.629 2.26a316.8 316.8 0 012.637-2.264c2.27-1.934 4.23-3.604 5.547-5.194 1.363-1.645 1.97-3.108 1.97-4.744 0-1.55-.52-2.97-1.467-3.996a4.852 4.852 0 00-3.61-1.569c-1.022 0-1.961.325-2.79.966-.738.571-1.253 1.294-1.555 1.799a.844.844 0 01-.73.415.844.844 0 01-.73-.415c-.302-.505-.816-1.228-1.555-1.8a4.468 4.468 0 00-2.79-.965z" fill="#E33E54"/></svg><svg fill="none" viewBox="0 0 15 16" id="instagram" xmlns="http://www.w3.org/2000/svg"><path d="M10.94 0H4.06C1.821 0 0 1.943 0 4.331v7.338C0 14.057 1.821 16 4.06 16h6.88c2.239 0 4.06-1.943 4.06-4.331V4.331C15 1.943 13.178 0 10.94 0zM7.5 12.375c-2.262 0-4.101-1.963-4.101-4.375S5.239 3.625 7.5 3.625c2.262 0 4.101 1.963 4.101 4.375s-1.84 4.375-4.101 4.375zm4.2-7.718c-.669 0-1.212-.58-1.212-1.293s.543-1.293 1.212-1.293c.668 0 1.212.58 1.212 1.293s-.544 1.293-1.213 1.293z" fill="currentColor"/><path d="M7.5 4.563C5.723 4.563 4.278 6.105 4.278 8c0 1.895 1.445 3.437 3.222 3.437S10.722 9.895 10.722 8c0-1.895-1.445-3.437-3.222-3.437zM11.7 3.01c-.184 0-.333.158-.333.354 0 .196.15.355.332.355.184 0 .333-.16.333-.355 0-.196-.149-.355-.332-.355z" fill="currentColor"/></svg><svg fill="none" viewBox="0 0 77 77" id="review" xmlns="http://www.w3.org/2000/svg"><path d="M8.2 6.82a1.504 1.504 0 000 3.008h.014c.83 0 1.497-.673 1.497-1.504 0-.83-.681-1.504-1.512-1.504zM15.41 6.82a1.504 1.504 0 000 3.008h.015c.83 0 1.496-.673 1.496-1.504 0-.83-.68-1.504-1.51-1.504zM22.62 6.82a1.504 1.504 0 000 3.008h.015c.83 0 1.496-.673 1.496-1.504 0-.83-.68-1.504-1.511-1.504zM59.505 6.82H41.256a1.504 1.504 0 000 3.008h18.249a1.504 1.504 0 000-3.008zM35.178 59.692c-.28-.28-.668-.44-1.063-.44-.396 0-.784.16-1.063.44-.28.28-.441.668-.441 1.063 0 .395.16.783.44 1.063.28.28.668.44 1.064.44.395 0 .783-.16 1.063-.44.28-.28.44-.667.44-1.063 0-.396-.16-.783-.44-1.063z" fill="#4C858B"/><path d="M68.88 19.291V7.523c0-4.146-3.373-7.518-7.519-7.518H7.52C3.373.005 0 3.377 0 7.523v47.514c0 3.982 3.24 7.222 7.222 7.222h5.644v.244c0 .515-.366.96-.87 1.061l-5.668 1.13A7.292 7.292 0 00.481 71.08l-.463 4.249a1.504 1.504 0 001.494 1.667h32.603a1.503 1.503 0 001.494-1.667l-.464-4.25a7.293 7.293 0 00-5.847-6.385l-5.668-1.13c-.505-.1-.87-.547-.87-1.06V61.09l-.002-.023 2.549-1.457.082-.05c1.367-.903 2.264-2.51 2.4-4.3.004-.038.005-.076.005-.114V48.98c.899-.585 1.555-1.65 1.555-3.512l.002-3.38c0-.055-.003-.11-.009-.165a5.552 5.552 0 00-5.574-5.287H10.99c-.56 0-1.081-.297-1.42-.546a2.06 2.06 0 00-2.161-.183 2.052 2.052 0 00-1.132 1.84v4.893c0 1.662.584 3.19 1.557 4.39v8.117c0 .038.002.076.004.115.122 1.596.86 3.05 2.002 3.99H7.222a4.22 4.22 0 01-4.215-4.215V23.473h16.794a1.504 1.504 0 000-3.007H3.008v-4.21h62.864v2.994h-24.41c-4.947 0-8.972 4.025-8.972 8.972v12.586c0 4.947 4.025 8.972 8.972 8.972h1.88v4.397a1.504 1.504 0 002.567 1.063l5.46-5.46h14.504v5.256a4.22 4.22 0 01-4.215 4.215H40.234a1.504 1.504 0 000 3.008h21.423c3.983 0 7.223-3.24 7.223-7.222v-5.298c4.549-.43 8.12-4.27 8.12-8.93V28.221c0-4.66-3.571-8.5-8.12-8.93zm-45.148 47.36l4.979.992a4.296 4.296 0 013.445 3.762l.282 2.583H3.189l.282-2.582a4.296 4.296 0 013.445-3.763l4.979-.992a8.845 8.845 0 005.919 2.25 8.846 8.846 0 005.918-2.25zm-8.822-1.52a4.083 4.083 0 00.951-2.358 4.43 4.43 0 001.953.46c.664 0 1.328-.155 1.95-.46.06.887.404 1.708.952 2.36a5.869 5.869 0 01-2.902.761 5.87 5.87 0 01-2.904-.762zm9.877-10.047c-.076.82-.463 1.557-1.02 1.944l-5.053 2.888a1.505 1.505 0 00-.082.05 1.428 1.428 0 01-1.636 0 1.475 1.475 0 00-.081-.049l-5.038-2.888c-.568-.393-.96-1.13-1.037-1.945v-5.89a6.95 6.95 0 002.423.434h11.524v5.456zM9.284 42.642v-3.312a4.917 4.917 0 001.706.315h12.778a2.56 2.56 0 012.576 2.55l-.003 3.273v.001c0 .761-.155.954-.173.973-.06.067-.324.18-.925.18h-11.98a3.984 3.984 0 01-3.98-3.98zM3.008 13.248V7.523a4.516 4.516 0 014.51-4.51h53.843a4.516 4.516 0 014.511 4.51v5.725H3.008zm70.985 27.56a5.972 5.972 0 01-5.965 5.965H50.745c-.398 0-.78.158-1.063.44l-3.333 3.334v-2.27c0-.83-.673-1.504-1.504-1.504h-3.383a5.972 5.972 0 01-5.965-5.965V28.222a5.971 5.971 0 015.965-5.965h26.566a5.972 5.972 0 015.965 5.965v12.586z" fill="#4C858B"/><path d="M42.715 29.947a4.516 4.516 0 00-4.512 4.51 4.516 4.516 0 004.512 4.512 4.516 4.516 0 004.51-4.511 4.516 4.516 0 00-4.51-4.511zm0 6.014c-.83 0-1.504-.674-1.504-1.503 0-.83.675-1.504 1.504-1.504.83 0 1.504.674 1.504 1.504 0 .829-.675 1.503-1.504 1.503zM54.744 29.947a4.516 4.516 0 00-4.51 4.51 4.516 4.516 0 004.51 4.512 4.516 4.516 0 004.511-4.511 4.516 4.516 0 00-4.51-4.511zm0 6.014c-.829 0-1.504-.674-1.504-1.503 0-.83.675-1.504 1.504-1.504.83 0 1.504.674 1.504 1.504 0 .829-.675 1.503-1.504 1.503zM66.775 29.947a4.516 4.516 0 00-4.512 4.51 4.516 4.516 0 004.512 4.512 4.516 4.516 0 004.51-4.511 4.516 4.516 0 00-4.51-4.511zm0 6.014c-.83 0-1.504-.674-1.504-1.503 0-.83.674-1.504 1.504-1.504.829 0 1.503.674 1.503 1.504 0 .829-.675 1.503-1.504 1.503zM26.502 20.906c-.28-.28-.667-.44-1.063-.44-.395 0-.783.16-1.063.44-.28.28-.44.666-.44 1.063 0 .396.16.784.44 1.063.28.28.668.441 1.063.441.397 0 .784-.16 1.063-.44.282-.28.441-.668.441-1.064 0-.395-.16-.783-.44-1.063z" fill="#4C858B"/></svg><svg fill="none" viewBox="0 0 22 22" id="search" xmlns="http://www.w3.org/2000/svg"><g clip-path="url(#gclip0_401_23)"><path d="M21.731 20.435l-6.256-6.256a8.666 8.666 0 001.941-5.47C17.416 3.906 13.51 0 8.708 0 3.907 0 0 3.907 0 8.708c0 4.802 3.907 8.708 8.708 8.708 2.072 0 3.974-.73 5.47-1.941l6.257 6.256a.914.914 0 001.296 0 .916.916 0 000-1.296zM8.708 15.583a6.882 6.882 0 01-6.875-6.875 6.882 6.882 0 016.875-6.875 6.882 6.882 0 016.875 6.875 6.882 6.882 0 01-6.875 6.875z" fill="#4C858B"/></g><defs><clipPath id="gclip0_401_23"><path fill="#fff" d="M0 0h22v22H0z"/></clipPath></defs></svg><svg fill="none" viewBox="0 0 19 20" id="telegram" xmlns="http://www.w3.org/2000/svg"><g clip-path="url(#hclip0_401_47)"><path d="M7.455 12.65l-.314 4.654c.45 0 .644-.203.878-.447l2.108-2.121 4.368 3.367c.802.47 1.366.223 1.582-.776l2.868-14.143c.255-1.247-.428-1.735-1.209-1.43L.883 8.548c-1.15.47-1.133 1.145-.196 1.451l4.31 1.411 10.008-6.592c.472-.329.9-.147.548.181l-8.097 7.653z" fill="currentColor"/></g><defs><clipPath id="hclip0_401_47"><path fill="#fff" d="M0 0h19v20H0z"/></clipPath></defs></svg><svg fill="none" viewBox="0 0 20 20" id="vk" xmlns="http://www.w3.org/2000/svg"><g clip-path="url(#iclip0_401_49)"><path d="M16.596 10.857c-.323-.409-.231-.59 0-.955.004-.004 2.673-3.693 2.948-4.944h.002c.137-.456 0-.791-.661-.791h-2.187c-.556 0-.813.287-.95.609 0 0-1.114 2.665-2.689 4.392-.508.5-.743.66-1.02.66-.137 0-.35-.16-.35-.616V4.958c0-.547-.156-.791-.617-.791H7.634c-.349 0-.557.255-.557.492 0 .519.788.638.87 2.096V9.92c0 .694-.126.821-.405.821-.744 0-2.548-2.676-3.617-5.738-.216-.594-.427-.834-.987-.834H.75c-.624 0-.75.287-.75.609 0 .568.743 3.394 3.457 7.127 1.808 2.549 4.355 3.93 6.671 3.93 1.393 0 1.563-.307 1.563-.835 0-2.435-.126-2.665.571-2.665.324 0 .88.16 2.18 1.39 1.486 1.457 1.73 2.11 2.562 2.11h2.187c.623 0 .939-.307.757-.912-.416-1.273-3.226-3.89-3.352-4.065z" fill="currentColor"/></g><defs><clipPath id="iclip0_401_49"><path fill="#fff" d="M0 0h20v20H0z"/></clipPath></defs></svg><svg fill="none" viewBox="0 0 15 16" id="whatsapp" xmlns="http://www.w3.org/2000/svg"><path d="M7.502 0h-.004C3.363 0 0 3.588 0 8c0 1.75.529 3.372 1.428 4.689l-.935 2.972 2.883-.983A7.108 7.108 0 007.502 16C11.637 16 15 12.411 15 8s-3.363-8-7.498-8zm4.364 11.297c-.181.545-.9.997-1.472 1.129-.392.089-.904.16-2.627-.602-2.204-.974-3.623-3.363-3.734-3.518-.106-.155-.89-1.265-.89-2.413s.546-1.707.766-1.947c.181-.197.48-.287.767-.287.093 0 .176.005.252.009.22.01.33.024.476.395.18.465.621 1.613.674 1.731.053.118.107.278.032.433-.07.16-.133.231-.243.367-.11.136-.216.24-.326.386-.102.127-.216.263-.089.498.128.23.569.997 1.217 1.613.838.795 1.516 1.049 1.76 1.157.18.08.396.061.528-.089.168-.193.375-.513.586-.828.15-.226.34-.254.538-.174.202.075 1.274.64 1.494.757.22.118.366.174.42.273.052.099.052.564-.13 1.11z" fill="currentColor"/></svg></svg>